HIERARCHY
ROOT Hips
{
 OFFSET 0.000000 0.000000 0.000000
 CHANNELS 6 Xposition Yposition Zposition Yrotation Xrotation Zrotation
 JOINT Chest
 {
  OFFSET 0.000000 9.585900 0.002600
  CHANNELS 3 Yrotation Xrotation Zrotation
  JOINT Chest2
  {
   OFFSET 0.000000 9.601200 -0.005300
   CHANNELS 3 Yrotation Xrotation Zrotation
   JOINT Chest3
   {
    OFFSET 0.000000 9.561800 0.000000
    CHANNELS 3 Yrotation Xrotation Zrotation
    JOINT Chest4
    {
     OFFSET 0.000000 9.552100 0.000000
     CHANNELS 3 Yrotation Xrotation Zrotation
     JOINT Neck
     {
      OFFSET 0.000000 14.453000 0.000000
      CHANNELS 3 Yrotation Xrotation Zrotation
      JOINT Head
      {
       OFFSET 0.000000 8.936500 -0.011300
       CHANNELS 3 Yrotation Xrotation Zrotation
       End Site
       {
        OFFSET 0.000000 17.073600 -0.006000
       }
      }
     }
     JOINT RightCollar
     {
      OFFSET -2.921100 9.558500 0.000000
      CHANNELS 3 Yrotation Xrotation Zrotation
      JOINT RightShoulder
      {
       OFFSET -13.519700 0.000000 0.000000
       CHANNELS 3 Yrotation Xrotation Zrotation
       JOINT RightElbow
       {
        OFFSET 0.000000 -29.696600 0.000000
        CHANNELS 3 Yrotation Xrotation Zrotation
        JOINT RightWrist
        {
         OFFSET 0.000000 -24.004700 0.000000
         CHANNELS 3 Yrotation Xrotation Zrotation
         End Site
         {
          OFFSET 0.000000 -17.728500 0.000000
         }
        }
       }
      }
     }
     JOINT LeftCollar
     {
      OFFSET 2.921100 9.558500 0.000000
      CHANNELS 3 Yrotation Xrotation Zrotation
      JOINT LeftShoulder
      {
       OFFSET 13.519700 0.000000 0.000000
       CHANNELS 3 Yrotation Xrotation Zrotation
       JOINT LeftElbow
       {
        OFFSET 0.000000 -29.696600 0.000000
        CHANNELS 3 Yrotation Xrotation Zrotation
        JOINT LeftWrist
        {
         OFFSET 0.000000 -24.004700 0.000000
         CHANNELS 3 Yrotation Xrotation Zrotation
         End Site
         {
          OFFSET 0.000000 -17.728500 0.000000
         }
        }
       }
      }
     }
    }
   }
  }
 }
 JOINT RightHip
 {
  OFFSET -7.771700 -0.012900 -0.001300
  CHANNELS 3 Yrotation Xrotation Zrotation
  JOINT RightKnee
  {
   OFFSET 0.000000 -40.869800 0.001200
   CHANNELS 3 Yrotation Xrotation Zrotation
   JOINT RightAnkle
   {
    OFFSET 0.000000 -39.717900 0.002100
    CHANNELS 3 Yrotation Xrotation Zrotation
    JOINT RightToe
    {
     OFFSET 0.000000 -4.965400 11.033500
     CHANNELS 3 Yrotation Xrotation Zrotation
     End Site
     {
      OFFSET 0.000000 -1.423100 5.872300
     }
    }
   }
  }
 }
 JOINT LeftHip
 {
  OFFSET 7.771700 -0.012900 -0.001300
  CHANNELS 3 Yrotation Xrotation Zrotation
  JOINT LeftKnee
  {
   OFFSET 0.000000 -40.869800 0.001200
   CHANNELS 3 Yrotation Xrotation Zrotation
   JOINT LeftAnkle
   {
    OFFSET 0.000000 -39.717900 0.002100
    CHANNELS 3 Yrotation Xrotation Zrotation
    JOINT LeftToe
    {
     OFFSET 0.000000 -4.965400 11.033500
     CHANNELS 3 Yrotation Xrotation Zrotation
     End Site
     {
      OFFSET 0.000000 -1.423100 5.872300
     }
    }
   }
  }
 }
}
MOTION
Frames: 6
Frame Time: 0.008333
0.000000 85.388000 0.000000 0.000000 -5.767877 0.000000 0.000000 11.653817 0.000000 0.000000 -5.885947 0.000000 0.000000 -0.000000 0.000000 0.000000 -0.000000 0.000000 0.000000 12.528835 0.000000 0.000000 0.711642 0.000000 0.000000 -0.000000 0.000000 0.000000 0.000000 -90.000000 0.000000 -2.309062 0.000000 0.000000 2.309062 0.000000 0.000000 -0.000000 0.000000 0.000000 -0.000000 90.000000 0.000000 -2.309062 0.000000 0.000000 2.309062 0.000000 0.000000 8.520406 0.000000 0.000000 1.905762 0.000000 -0.000000 -4.658285 0.000000 0.000000 -0.000000 0.000000 0.000000 8.520406 0.000000 0.000000 1.905762 0.000000 -0.000000 -4.658285 0.000000 0.000000 -0.000000 0.000000
-106.890747 57.583367 97.056837 -178.972154 -37.724273 -0.350268 4.124647 21.818499 2.610749 0.507807 3.019133 0.315911 0.833802 4.900815 0.527208 3.472727 18.400844 2.428373 1.045973 17.130127 -1.446104 2.425405 -3.940893 -3.028847 0.683741 1.428935 0.932743 0.456002 -23.201520 -8.296632 137.543177 -39.836352 -144.197298 19.911443 -12.577170 -51.481983 -4.493934 2.079343 -1.203452 32.872790 -14.680145 -9.835188 -133.218158 -24.805217 158.079556 -12.344584 -20.804328 36.004787 11.555917 -37.200981 -9.056859 -11.117146 68.803168 -12.526498 7.524195 22.305958 9.665750 -0.542501 -16.306741 3.044805 -7.085258 -35.462117 -2.821145 24.439637 62.882915 20.636107 -16.399794 9.428472 -1.859207 0.400112 0.404286 0.267653
-106.911764 57.578409 97.065324 -178.860850 -37.808082 -0.327940 4.185926 21.793625 2.559999 0.517736 3.019106 0.311404 0.849825 4.900594 0.520068 3.530469 18.395989 2.407743 0.989973 17.148433 -1.341151 2.285723 -3.912188 -2.815338 0.509517 1.615348 0.959070 -0.584047 -22.663194 -7.404985 137.311326 -40.505238 -144.526799 19.658306 -11.894512 -51.260965 -4.627977 2.272197 -1.219256 33.108132 -14.744700 -10.234996 -132.871002 -25.074775 158.355225 -12.261365 -20.592673 35.877000 11.598291 -37.102978 -9.174169 -11.146304 68.832972 -12.552633 7.505857 22.287374 9.681275 -0.521351 -16.309099 3.069732 -7.094646 -35.382789 -2.955085 24.390793 62.835478 20.573267 -16.377346 9.479804 -1.851664 0.389363 0.393428 0.259559
-106.933828 57.571376 97.076679 -178.740511 -37.902226 -0.319023 4.236368 21.777306 2.520217 0.526077 3.019635 0.307362 0.863270 4.901282 0.513706 3.578510 18.393398 2.388713 0.943277 17.171722 -1.236885 2.163330 -3.873585 -2.606114 0.365386 1.812061 0.965343 -1.403472 -22.084242 -6.568899 136.854480 -41.079608 -144.699249 19.414290 -11.234963 -50.973824 -4.751297 2.442211 -1.264507 33.192232 -14.856425 -10.574545 -132.782106 -25.485049 158.631597 -12.143830 -20.375186 35.737871 11.590332 -36.996553 -9.271468 -11.154891 68.850891 -12.563012 7.482592 22.276299 9.674269 -0.500567 -16.306843 3.097311 -7.116273 -35.294609 -3.082422 24.337182 62.786359 20.502052 -16.340205 9.536131 -1.832159 0.365206 0.384265 0.241888
-106.962552 57.562262 97.090848 -178.610214 -38.005260 -0.290693 4.264719 21.771698 2.456689 0.533475 3.020632 0.303572 0.875270 4.902749 0.507670 3.620753 18.392536 2.370114 0.903939 17.195746 -1.133543 2.054894 -3.833057 -2.401123 0.238068 2.020836 0.959104 -1.982909 -21.496691 -5.796332 136.178293 -41.534169 -144.687475 19.168208 -10.628752 -50.585916 -4.878627 2.599153 -1.323994 33.127932 -15.011175 -10.844634 -132.927854 -25.989852 158.890451 -12.005173 -20.197038 35.590762 11.594504 -36.878657 -9.390637 -11.118353 68.873896 -12.566128 7.492614 22.260389 9.713510 -0.522606 -16.309529 3.131551 -7.111319 -35.210889 -3.269154 24.318947 62.734870 20.480299 -16.277126 9.617414 -1.790924 0.313206 0.354917 0.205478
-106.991211 57.550702 97.108110 -178.485457 -38.111030 -0.271865 4.300265 21.767596 2.409388 0.540517 3.022405 0.299905 0.886600 4.905499 0.501825 3.660154 18.393964 2.351693 0.869875 17.217231 -1.033113 1.957409 -3.796723 -2.203515 0.116342 2.239923 0.952014 -2.353124 -20.936401 -5.099530 135.406519 -41.876785 -144.526052 18.930598 -10.089576 -50.086805 -5.016583 2.751054 -1.385978 32.920751 -15.193682 -11.033310 -133.230698 -26.510978 159.107437 -11.864953 -20.055244 35.427784 11.645672 -36.761190 -9.518074 -11.127996 68.899316 -12.582407 7.488431 22.261427 9.772330 -0.525956 -16.323397 3.147828 -7.128638 -35.121681 -3.406776 24.297101 62.685474 20.425081 -16.261371 9.686868 -1.759173 0.299353 0.344252 0.188562
